<svg id="Layer_1" data-name="Layer 1" xmlns="http://www.w3.org/2000/svg" viewBox="0 0 20.8 20.8"><defs><style>.cls-1{fill:#fff;}</style></defs><title>blubeta-logo-white</title><circle class="cls-1" cx="8.2" cy="7.8" r="1.2"/><circle class="cls-1" cx="12.6" cy="7.8" r="1.2"/><path class="cls-1" d="M10.4,2.3a8.18,8.18,0,0,1,8.1,7.6h2.3A10.41,10.41,0,1,0,10,20.8V18.5a8,8,0,0,1-7.6-8A8.07,8.07,0,0,1,10.4,2.3Z" transform="translate(0 0)"/><path class="cls-1" d="M18.4,10.8a8,8,0,0,1-7.6,7.6v2.3a10.26,10.26,0,0,0,9.9-9.9H18.4Z" transform="translate(0 0)"/></svg>