<?xml version="1.0" encoding="utf-8"?>
<!-- Generator: Adobe Illustrator 19.2.0, SVG Export Plug-In . SVG Version: 6.00 Build 0)  -->
<svg version="1.1" id="Layer_1" xmlns="http://www.w3.org/2000/svg" xmlns:xlink="http://www.w3.org/1999/xlink" x="0px" y="0px"
	 viewBox="0 0 20.8 20.8" style="enable-background:new 0 0 20.8 20.8;" xml:space="preserve">
<style type="text/css">
	.st0{fill:#FFFFFF;}
</style>
<g>
	<circle class="st0" cx="8.2" cy="7.8" r="1.2"/>
	<circle class="st0" cx="12.6" cy="7.8" r="1.2"/>
	<g>
		<path class="st0" d="M10.4,2.3c4.3,0,7.8,3.4,8.1,7.6h2.3C20.5,4.4,16,0,10.4,0C4.6,0,0,4.7,0,10.4C0,16,4.4,20.5,10,20.8v-2.3
			c-4.2-0.2-7.6-3.7-7.6-8C2.3,6,5.9,2.4,10.4,2.3z"/>
		<path class="st0" d="M18.4,10.8c-0.2,4.1-3.5,7.4-7.6,7.6v2.3c5.4-0.2,9.7-4.5,9.9-9.9H18.4z"/>
	</g>
</g>
</svg>
