<svg id="Layer_1" data-name="Layer 1" xmlns="http://www.w3.org/2000/svg" viewBox="0 0 694.13 114.66"><defs><style>.cls-1{fill:#8cc63f;}.cls-11,.cls-12,.cls-15,.cls-2,.cls-9{fill:#fff;}.cls-3,.cls-5,.cls-6,.cls-7,.cls-8{fill:none;}.cls-15,.cls-3,.cls-5{stroke:#bcbec0;}.cls-12,.cls-15,.cls-3,.cls-5,.cls-6,.cls-7,.cls-8,.cls-9{stroke-miterlimit:10;}.cls-4{font-size:12px;font-family:PT Sans Narrow;font-weight:700;}.cls-10,.cls-4{fill:#125eac;}.cls-5{stroke-dasharray:12;}.cls-12,.cls-6{stroke:#32c3e8;}.cls-7,.cls-9{stroke:#125eac;}.cls-8{stroke:#8cc63f;}.cls-11{font-size:22.97px;}.cls-11,.cls-13,.cls-16{font-family:Eurostile;}.cls-13{font-size:22px;}.cls-13,.cls-14{fill:#32c3e8;}.cls-16{font-size:21.29px;fill:#bcbec0;}</style></defs><title>landing-page</title><circle class="cls-1" cx="666.63" cy="27.5" r="27.5"/><path class="cls-2" d="M650.75,21.51v12h-1.35v-11l-3.07,3.4-0.85-.81,3.32-3.6h2Z" transform="translate(-1.39)"/><path class="cls-2" d="M660.2,21.38q3.33,0,4,.89t0.69,5.23q0,4.13-.65,5-0.84,1.12-4.05,1.12t-4.05-1.12q-0.65-.88-0.65-5.44,0-3.95.72-4.82T660.2,21.38Zm0,1.14q-2.52,0-3,.65t-0.44,4.32q0,3.68.44,4.33t3,0.65q2.52,0,3-.65t0.44-4.33q0-3.67-.44-4.32T660.2,22.53Z" transform="translate(-1.39)"/><path class="cls-2" d="M671.24,21.38q3.33,0,4,.89t0.69,5.23q0,4.13-.65,5-0.84,1.12-4.05,1.12t-4.05-1.12q-0.65-.88-0.65-5.44,0-3.95.72-4.82T671.24,21.38Zm0,1.14q-2.52,0-3,.65t-0.44,4.32q0,3.68.44,4.33t3,0.65q2.52,0,3-.65t0.44-4.33q0-3.67-.44-4.32T671.24,22.53Z" transform="translate(-1.39)"/><path class="cls-2" d="M679.68,21.46a3.23,3.23,0,0,1,2.21.47,4.73,4.73,0,0,1,.4,2.54,5,5,0,0,1-.4,2.58,2.75,2.75,0,0,1-2.06.51,3.35,3.35,0,0,1-2.32-.52,4.53,4.53,0,0,1-.46-2.6,4.1,4.1,0,0,1,.47-2.44A3,3,0,0,1,679.68,21.46Zm0,0.63a2.27,2.27,0,0,0-1.58.34,3.8,3.8,0,0,0-.28,1.92,4.6,4.6,0,0,0,.29,2.24,3.56,3.56,0,0,0,2.05.33,1.24,1.24,0,0,0,1.4-1.4v-2a1.54,1.54,0,0,0-.3-1.19A3.24,3.24,0,0,0,679.66,22.1Zm8.65-.59-8.15,12h-0.82l8.09-12h0.87Zm-0.36,6a3.23,3.23,0,0,1,2.21.47,4.73,4.73,0,0,1,.4,2.54,5,5,0,0,1-.4,2.58,2.77,2.77,0,0,1-2.06.51,3.35,3.35,0,0,1-2.32-.52,4.54,4.54,0,0,1-.46-2.6,4.1,4.1,0,0,1,.47-2.44A3,3,0,0,1,688,27.46Zm0,0.63a2.27,2.27,0,0,0-1.58.34,3.79,3.79,0,0,0-.28,1.92,4.6,4.6,0,0,0,.29,2.24,3.56,3.56,0,0,0,2.05.33,1.24,1.24,0,0,0,1.4-1.4v-2a1.53,1.53,0,0,0-.31-1.19A3.25,3.25,0,0,0,687.93,28.09Z" transform="translate(-1.39)"/><line class="cls-3" x1="27.66" y1="54.43" x2="27.66" y2="87.99"/><text class="cls-4" transform="translate(220.73 111.38)">Planning</text><text class="cls-4" transform="translate(433.96 111.38)">E<tspan x="5.16" y="0">x</tspan><tspan x="10.19" y="0">ecuting</tspan></text><text class="cls-4" transform="translate(10.5 111.38)">Scoping</text><text class="cls-4" transform="translate(649.19 111.38)">Delivery</text><line class="cls-5" x1="54.35" y1="27.5" x2="639.13" y2="27.5"/><line class="cls-6" x1="239.27" y1="54.43" x2="239.27" y2="87.99"/><line class="cls-7" x1="452.38" y1="54.43" x2="452.38" y2="87.99"/><line class="cls-8" x1="667.32" y1="54.43" x2="667.32" y2="87.99"/><circle class="cls-9" cx="453.05" cy="27.5" r="26.8"/><path class="cls-10" d="M427.94,27a26.88,26.88,0,0,0,24.85,26.8h4.07A26.88,26.88,0,0,0,481.7,27c0-4.41-3.43-11.69-5.31-15.36h-43.9C430.6,15.31,427.94,22.59,427.94,27Z" transform="translate(-1.39)"/><text class="cls-11" transform="translate(429.94 34.2)">80%</text><circle class="cls-12" cx="240.3" cy="27.5" r="26.93"/><text class="cls-13" transform="translate(218.17 33.72)">20%</text><path class="cls-14" d="M217.17,39.09v0.09a27.52,27.52,0,0,0,22.6,15.24h4.14a27.52,27.52,0,0,0,22.64-15.33H217.17Z" transform="translate(-1.39)"/><circle class="cls-15" cx="27.43" cy="27.5" r="26.93"/><text class="cls-16" transform="translate(12.54 33.72)">0%</text></svg>