<svg id="Layer_1" data-name="Layer 1" xmlns="http://www.w3.org/2000/svg" viewBox="0 0 277.04 277.04"><defs><style>.cls-1,.cls-6{fill:none;}.cls-2,.cls-5{fill:#fff;}.cls-3,.cls-7{fill:#125eac;}.cls-4,.cls-8{fill:#8cc63f;}.cls-5{stroke:#125eac;}.cls-5,.cls-6{stroke-miterlimit:10;}.cls-6{stroke:#8cc63f;}.cls-7,.cls-8{font-size:12.33px;font-family:PT Sans Narrow;}.cls-9{font-size:7.05px;}.cls-10,.cls-9{fill:#aeb6b5;font-family:Helvetica;}.cls-10{font-size:7px;}</style></defs><title>landing-page-circular</title><path class="cls-1" d="M87.15,91.51l-4-4a75,75,0,0,0-19.86,48H69A69.35,69.35,0,0,1,87.15,91.51Z"/><path class="cls-1" d="M135.44,69v-5.7a75,75,0,0,0-48,19.86l4,4A69.36,69.36,0,0,1,135.44,69Z"/><text/><path class="cls-2" d="M208.07,135.44h5.7a75,75,0,0,0-19.86-48l-4,4A69.35,69.35,0,0,1,208.07,135.44Z"/><path class="cls-2" d="M185.53,87.15l4-4a75,75,0,0,0-48-19.86V69A69.36,69.36,0,0,1,185.53,87.15Z"/><path class="cls-1" d="M91.51,189.89l-4,4a75,75,0,0,0,48,19.86v-5.7A69.36,69.36,0,0,1,91.51,189.89Z"/><path class="cls-1" d="M141.6,208.07v5.7a75,75,0,0,0,48-19.86l-4-4A69.36,69.36,0,0,1,141.6,208.07Z"/><path class="cls-3" d="M38.39,42.75A138.07,138.07,0,0,0,0,135.44H131.08Z"/><path class="cls-3" d="M135.44,0A138.07,138.07,0,0,0,42.75,38.39l92.69,92.69V0Z"/><path class="cls-3" d="M0,141.6a138.07,138.07,0,0,0,38.39,92.69l92.69-92.69H0Z"/><path class="cls-3" d="M277,135.44a138.07,138.07,0,0,0-38.39-92.69L146,135.44H277Z"/><path class="cls-3" d="M234.29,38.39A138.06,138.06,0,0,0,141.6,0V131.08Z"/><path class="cls-3" d="M42.75,238.65A138.08,138.08,0,0,0,135.44,277V146Z"/><path class="cls-4" d="M146,141.6l92.69,92.69A138.07,138.07,0,0,0,277,141.6H146Z"/><path class="cls-4" d="M141.6,277a138.07,138.07,0,0,0,92.69-38.39L141.6,146V277Z"/><circle class="cls-2" cx="138.52" cy="138.52" r="80.67"/><path class="cls-5" d="M141.93,63.78h0v71.62h71.61A72.13,72.13,0,0,0,141.93,63.78Z"/><path class="cls-6" d="M213.59,141.6H142v71.61A72.13,72.13,0,0,0,213.59,141.6Z"/><text class="cls-7" transform="translate(145.96 128.81)">Dis<tspan x="13.32" y="0">c</tspan><tspan x="17.5" y="0">o</tspan><tspan x="22.7" y="0">ver</tspan><tspan x="35.95" y="0">y</tspan></text><text class="cls-8" transform="translate(145.96 155.64)">Planning</text><path class="cls-5" d="M134.91,213.21h0V141.6H63.3A72.13,72.13,0,0,0,134.91,213.21Z"/><text class="cls-7" transform="translate(87.47 155.64)">E<tspan x="5.29" y="0">x</tspan><tspan x="10.13" y="0">e</tspan><tspan x="15.13" y="0">cuting</tspan></text><path class="cls-5" d="M63.16,135.38h71.61V63.77A72.13,72.13,0,0,0,63.16,135.38Z"/><text class="cls-7" transform="translate(93.93 128.81)">Deliver<tspan x="30.37" y="0">y</tspan></text><text class="cls-9" transform="translate(146.98 99.58)">6 Days</text><text class="cls-10" transform="translate(145.96 177.41)">12 Days</text><text class="cls-10" transform="translate(102.67 177.41)">12 Days</text><text class="cls-9" transform="translate(106.49 99.58)">Day 30</text></svg>